<?xml version="1.0" encoding="utf-8"?>
<!-- Generator: Adobe Illustrator 25.0.0, SVG Export Plug-In . SVG Version: 6.00 Build 0)  -->
<svg version="1.1" id="Layer_1" xmlns="http://www.w3.org/2000/svg" xmlns:xlink="http://www.w3.org/1999/xlink" x="0px" y="0px"
	 viewBox="0 0 1920 1080" style="enable-background:new 0 0 1920 1080;" xml:space="preserve">
<style type="text/css">
	.st0{fill:none;}
	.st1{fill:url(#SVGID_1_);}
	.st2{fill:url(#SVGID_2_);}
	.st3{fill:url(#SVGID_3_);}
	.st4{fill:url(#SVGID_4_);}
</style>
<g>
	<rect x="-0.86" y="1.03" class="st0" width="1920.86" height="1078.97"/>
	<linearGradient id="SVGID_1_" gradientUnits="userSpaceOnUse" x1="-56.1661" y1="151.8921" x2="188.9391" y2="10.3805">
		<stop  offset="0.4383" style="stop-color:#3E5FAB"/>
		<stop  offset="1" style="stop-color:#55AADF"/>
	</linearGradient>
	<path class="st1" d="M160.18-31.4c0,0,119.67,126.33-20.68,235.66c0,0-99.82,59.88-160.97,7.73l-3.6-243.39H160.18z"/>
	<linearGradient id="SVGID_2_" gradientUnits="userSpaceOnUse" x1="292.5022" y1="212.5125" x2="392.9721" y2="112.0427">
		<stop  offset="0.4457" style="stop-color:#3D5AA8"/>
		<stop  offset="1" style="stop-color:#4EA0D8"/>
	</linearGradient>
	<circle class="st2" cx="342.74" cy="162.28" r="71.04"/>
	<linearGradient id="SVGID_3_" gradientUnits="userSpaceOnUse" x1="147.5939" y1="979.9091" x2="250.1116" y2="979.9091">
		<stop  offset="0" style="stop-color:#3D60AC"/>
		<stop  offset="1" style="stop-color:#478DCB"/>
	</linearGradient>
	<circle class="st3" cx="198.85" cy="979.91" r="51.26"/>
	<linearGradient id="SVGID_4_" gradientUnits="userSpaceOnUse" x1="516.1081" y1="540.5175" x2="1920" y2="540.5175">
		<stop  offset="0" style="stop-color:#3D5DAA"/>
		<stop  offset="1" style="stop-color:#57B0E3"/>
	</linearGradient>
	<path class="st4" d="M724.93,1.03c0,0-13.65,15.44,118.7,38.93c0,0,116.91,19.1,61.15,103.09c-55.76,83.98-55.76,83.98-55.76,83.98
		s-117.81,99.48,6.29,280.06S588.24,978.54,588.24,978.54S485.05,1044.4,525.52,1080H1920V1.03H724.93z"/>
</g>
</svg>
